<svg xmlns="http://www.w3.org/2000/svg" width="26" height="21" viewBox="0 0 26 21">
  <defs>
    <style>
      .cls-1 {
        fill: #596265;
        fill-rule: evenodd;
      }
    </style>
  </defs>
  <path class="cls-1" d="M1299.63,120.094a2.1,2.1,0,0,1-2.92.532l-8.62-5.973a2.1,2.1,0,0,1-.9-1.8,7.632,7.632,0,1,1-1.23-11.5,7.659,7.659,0,0,1,2.51,9.639,2.1,2.1,0,0,1,2.01.208l8.62,5.973A2.1,2.1,0,0,1,1299.63,120.094Zm-12.78-13.415a5.252,5.252,0,0,0-2.2-3.424A5.347,5.347,0,1,0,1286.85,106.679Z" transform="translate(-1274 -100)"/>
</svg>
