<svg xmlns="http://www.w3.org/2000/svg" width="25" height="25" viewBox="0 0 25 25">
  <defs>
    <style>
      .cls-1 {
        fill: #fff;
        fill-rule: evenodd;
      }
    </style>
  </defs>
  <path id="settings" class="cls-1" d="M740,2261.01h-1.324a9.515,9.515,0,0,1-.918,2.2l1.223,1.22a2.009,2.009,0,0,1,0,2.84l-0.708.71a2.011,2.011,0,0,1-2.836,0l-1.231-1.23a9.777,9.777,0,0,1-2.2.9v1.28a2.007,2.007,0,0,1-2,2.01h-1a2.007,2.007,0,0,1-2-2.01v-1.28a9.777,9.777,0,0,1-2.2-.9l-1.231,1.23a2.011,2.011,0,0,1-2.836,0l-0.709-.71a2.01,2.01,0,0,1,0-2.84l1.224-1.22a9.515,9.515,0,0,1-.918-2.2h-1.324a2.008,2.008,0,0,1-2-2.01v-1a2.008,2.008,0,0,1,2-2.01h1.308a9.368,9.368,0,0,1,.887-2.18l-1.177-1.18a2,2,0,0,1,0-2.83l0.709-.71a1.993,1.993,0,0,1,2.836,0l1.153,1.15a9.5,9.5,0,0,1,2.273-.95v-1.35a2.005,2.005,0,0,1,2-2h1a2.005,2.005,0,0,1,2,2v1.35a9.5,9.5,0,0,1,2.273.95l1.153-1.15a1.993,1.993,0,0,1,2.836,0l0.708,0.71a2,2,0,0,1,0,2.83l-1.176,1.18a9.412,9.412,0,0,1,.887,2.18H740a2.008,2.008,0,0,1,2,2.01v1A2.008,2.008,0,0,1,740,2261.01Zm-10.5-7.99a5.515,5.515,0,1,0,5.514,5.51A5.514,5.514,0,0,0,729.5,2253.02Zm0,7.95a2.505,2.505,0,1,1,2.506-2.5A2.5,2.5,0,0,1,729.5,2260.97Z" transform="translate(-717 -2245.94)"/>
</svg>
